<svg width="256" height="256" viewBox="0 0 256 256" fill="none" xmlns="http://www.w3.org/2000/svg">
    <circle cx="128" cy="128" r="122" stroke="#000000" stroke-width="12"/>
    <circle cx="128" cy="213" r="13" fill="#000000"/>
    <path fill-rule="evenodd" clip-rule="evenodd"
          d="M142 133.077C162.419 129.734 171 113.365 171 92C171 68.2518 151.748 49 128 49C104.252 49 85 68.2518 85 92C85 93.6912 85.0976 95.3597 85.2876 97H73.2242C73.0758 95.3532 73 93.6854 73 92C73 61.6243 97.6243 37 128 37C158.376 37 183 61.6243 183 92C183 120.004 169.07 141.764 142 145.202V133.077Z"
          fill="#000000"/>
    <path d="M144 139.5C139.167 139.333 129.5 141.7 129.5 152.5" stroke="#000000" stroke-width="12"/>
    <path d="M129 152V174" stroke="#000000" stroke-width="12"/>
</svg>
