<svg width="256" height="256" viewBox="0 0 256 256" fill="none" xmlns="http://www.w3.org/2000/svg">
<rect x="6" y="6" width="143" height="142" rx="6" stroke="#666666" stroke-width="12"/>
<path d="M89.8878 67.152C75.6798 63.12 69.8238 53.04 69.8238 42.288V37.008H56.9598V42.576C56.9598 53.904 50.9118 64.752 36.3198 69.168L42.3678 79.248C52.7358 75.984 59.7438 69.36 63.6798 60.816C67.4238 68.4 73.9518 74.16 83.4558 77.04L89.8878 67.152ZM61.3758 106.512H107.072V82.704H48.7038V92.4H94.5918V97.392H48.7998V121.584H109.664V111.792H61.3758V106.512ZM107.072 51.12V33.936H94.3998V79.248H107.072V61.392H118.688V51.12H107.072Z" fill="#666666"/>
<path fill-rule="evenodd" clip-rule="evenodd" d="M113 102C106.373 102 101 107.373 101 114V244C101 250.627 106.373 256 113 256H244C250.627 256 256 250.627 256 244V114C256 107.373 250.627 102 244 102H113ZM177.99 154.712C176.166 162.488 174.054 170.552 171.942 177.944L169.83 185.72H186.726L184.614 177.944C183.092 172.85 181.707 167.391 180.334 161.975C179.714 159.533 179.097 157.099 178.47 154.712H177.99ZM161.766 215H147.366L170.118 143.864H186.822L209.67 215H194.79L189.798 196.76H166.758L161.766 215Z" fill="#666666"/>
<path d="M172.5 50C192.333 44 230 42.7 222 85.5M172.5 50L205 26.5M172.5 50L205 71.5" stroke="#666666" stroke-width="12" stroke-linejoin="round"/>
<path d="M80.5982 205.5C60.7649 211.5 23.0982 212.8 31.0982 170M80.5982 205.5L48.0982 229M80.5982 205.5L48.0982 184" stroke="#666666" stroke-width="12" stroke-linejoin="round"/>
</svg>
