<svg width="256" height="256" viewBox="0 0 256 256" fill="none" xmlns="http://www.w3.org/2000/svg">
<g clip-path="url(#clip0)">
<mask id="path-1-inside-1" fill="white">
<path fill-rule="evenodd" clip-rule="evenodd" d="M30 0V44.1752V63V68V188V190V211.825V256L66.3158 211.825L98.4211 256L129.474 211.825L161.053 256L192.632 211.825L230 256V211.825V190V188V68V63V44.1752V0L192.632 44.1752L161.053 0L129.474 44.1752L98.4211 0L66.3158 44.1752L30 0Z"/>
</mask>
<path d="M30 0L39.2697 -7.62051L18 -33.4934V0H30ZM30 256H18V289.493L39.2697 263.621L30 256ZM66.3158 211.825L76.0229 204.77L66.9002 192.218L57.0461 204.204L66.3158 211.825ZM98.4211 256L88.7139 263.055L98.5838 276.635L108.238 262.901L98.4211 256ZM129.474 211.825L139.236 204.846L129.391 191.075L119.656 204.924L129.474 211.825ZM161.053 256L151.29 262.979L161.053 276.635L170.815 262.979L161.053 256ZM192.632 211.825L201.793 204.075L191.836 192.303L182.869 204.846L192.632 211.825ZM230 256L220.838 263.75L242 288.766V256H230ZM230 0H242V-32.7664L220.838 -7.75003L230 0ZM192.632 44.1752L182.869 51.1537L191.836 63.6966L201.793 51.9252L192.632 44.1752ZM161.053 0L170.815 -6.97855L161.053 -20.6347L151.29 -6.97855L161.053 0ZM129.474 44.1752L119.656 51.0761L129.391 64.9249L139.236 51.1537L129.474 44.1752ZM98.4211 0L108.238 -6.90092L98.5838 -20.6353L88.7139 -7.05488L98.4211 0ZM66.3158 44.1752L57.0461 51.7957L66.9002 63.7825L76.0229 51.2301L66.3158 44.1752ZM42 44.1752V0H18V44.1752H42ZM42 63V44.1752H18V63H42ZM42 68V63H18V68H42ZM42 188V68H18V188H42ZM42 190V188H18V190H42ZM42 211.825V190H18V211.825H42ZM42 256V211.825H18V256H42ZM57.0461 204.204L20.7303 248.379L39.2697 263.621L75.5855 219.445L57.0461 204.204ZM108.128 248.945L76.0229 204.77L56.6086 218.88L88.7139 263.055L108.128 248.945ZM119.656 204.924L88.6039 249.099L108.238 262.901L139.291 218.726L119.656 204.924ZM170.815 249.021L139.236 204.846L119.712 218.803L151.29 262.979L170.815 249.021ZM182.869 204.846L151.29 249.021L170.815 262.979L202.394 218.803L182.869 204.846ZM239.162 248.25L201.793 204.075L183.47 219.575L220.838 263.75L239.162 248.25ZM218 211.825V256H242V211.825H218ZM218 190V211.825H242V190H218ZM218 188V190H242V188H218ZM218 68V188H242V68H218ZM218 63V68H242V63H218ZM218 44.1752V63H242V44.1752H218ZM218 0V44.1752H242V0H218ZM201.793 51.9252L239.162 7.75003L220.838 -7.75003L183.47 36.4252L201.793 51.9252ZM151.29 6.97855L182.869 51.1537L202.394 37.1966L170.815 -6.97855L151.29 6.97855ZM139.236 51.1537L170.815 6.97855L151.29 -6.97855L119.712 37.1966L139.236 51.1537ZM88.6039 6.90092L119.656 51.0761L139.291 37.2743L108.238 -6.90092L88.6039 6.90092ZM76.0229 51.2301L108.128 7.05488L88.7139 -7.05488L56.6086 37.1203L76.0229 51.2301ZM20.7303 7.62051L57.0461 51.7957L75.5855 36.5547L39.2697 -7.62051L20.7303 7.62051Z" fill="#000000" mask="url(#path-1-inside-1)"/>
<path d="M73 96H183" stroke="#000000" stroke-width="12"/>
<path d="M73 128H183" stroke="#000000" stroke-width="12"/>
<path d="M73 160H183" stroke="#000000" stroke-width="12"/>
</g>
<defs>
<clipPath id="clip0">
<rect width="256" height="256" fill="white"/>
</clipPath>
</defs>
</svg>
